<svg xmlns="http://www.w3.org/2000/svg" xmlns:xlink="http://www.w3.org/1999/xlink" viewBox="0 0 303.32 488.99"><defs><style>.cls-1{isolation:isolate;}.cls-2{fill:url(#Dégradé_sans_nom_17);}.cls-3{fill:url(#radial-gradient);}.cls-12,.cls-4,.cls-7{mix-blend-mode:multiply;}.cls-4{fill:url(#radial-gradient-2);}.cls-5{fill:url(#linear-gradient);}.cls-6{fill:url(#radial-gradient-3);}.cls-7,.cls-9{opacity:0.5;}.cls-7{fill:url(#radial-gradient-4);}.cls-10,.cls-8,.cls-9{mix-blend-mode:overlay;}.cls-8{fill:url(#radial-gradient-5);}.cls-9{fill:url(#radial-gradient-6);}.cls-11,.cls-15{fill:#fff;}.cls-11{opacity:0.3;}.cls-12{opacity:0.8;}.cls-13,.cls-14{opacity:0.6;mix-blend-mode:hard-light;}.cls-13{fill:url(#radial-gradient-7);}.cls-14{fill:url(#radial-gradient-8);}.cls-16{fill:#be1e2d;}</style><radialGradient id="Dégradé_sans_nom_17" cx="567.45" cy="436.7" r="159.35" gradientUnits="userSpaceOnUse"><stop offset="0.06" stop-color="#bf4500"/><stop offset="0.19" stop-color="#d3590d"/><stop offset="0.39" stop-color="#eb711c"/><stop offset="0.58" stop-color="#fa7f25"/><stop offset="0.73" stop-color="#ff8428"/></radialGradient><radialGradient id="radial-gradient" cx="576.69" cy="442.13" r="159.35" gradientUnits="userSpaceOnUse"><stop offset="0.27" stop-color="#ffc200"/><stop offset="0.38" stop-color="#fcbd00"/><stop offset="0.52" stop-color="#f5ae00"/><stop offset="0.67" stop-color="#e89600"/><stop offset="0.83" stop-color="#d77400"/><stop offset="0.99" stop-color="#c14900"/><stop offset="1" stop-color="#bf4500"/></radialGradient><radialGradient id="radial-gradient-2" cx="571.93" cy="619.83" r="149.29" gradientTransform="translate(-420.27 440.25) scale(1 0.06)" gradientUnits="userSpaceOnUse"><stop offset="0" stop-color="#8c8c8c"/><stop offset="0.14" stop-color="#919191" stop-opacity="0.96"/><stop offset="0.32" stop-color="#9e9e9e" stop-opacity="0.84"/><stop offset="0.52" stop-color="#b5b5b5" stop-opacity="0.64"/><stop offset="0.75" stop-color="#d4d4d4" stop-opacity="0.37"/><stop offset="0.98" stop-color="#fcfcfc" stop-opacity="0.02"/><stop offset="1" stop-color="#fff" stop-opacity="0"/></radialGradient><linearGradient id="linear-gradient" x1="23.47" y1="397.59" x2="307.55" y2="397.59" gradientTransform="matrix(-0.8, -0.61, 0.61, -0.8, 462.7, 975.01)" gradientUnits="userSpaceOnUse"><stop offset="0" stop-color="#413e3f"/><stop offset="0.04" stop-color="#484546"/><stop offset="0.1" stop-color="#5b5859"/><stop offset="0.17" stop-color="#7a7778"/><stop offset="0.24" stop-color="#a5a3a4"/><stop offset="0.29" stop-color="#c2c0c1"/><stop offset="0.66" stop-color="#636162"/><stop offset="0.9" stop-color="#e9e8e8"/></linearGradient><radialGradient id="radial-gradient-3" cx="151.31" cy="236.71" r="215.08" xlink:href="#radial-gradient"/><radialGradient id="radial-gradient-4" cx="567.45" cy="656.27" r="94.75" xlink:href="#radial-gradient"/><radialGradient id="radial-gradient-5" cx="600.69" cy="462.43" r="126.46" gradientTransform="translate(61.68 18.51) scale(0.85 0.91)" gradientUnits="userSpaceOnUse"><stop offset="0.27" stop-color="#cfce00"/><stop offset="1" stop-color="#cfce00" stop-opacity="0"/></radialGradient><radialGradient id="radial-gradient-6" cx="203.82" cy="246.92" r="97.09" gradientTransform="translate(733.96 885.9) rotate(180) scale(0.79 0.91)" xlink:href="#radial-gradient-5"/><radialGradient id="radial-gradient-7" cx="501.38" cy="558.42" r="111.38" xlink:href="#radial-gradient"/><radialGradient id="radial-gradient-8" cx="642.26" cy="558.42" r="111.38" xlink:href="#radial-gradient"/></defs><title>button</title><g class="cls-1"><g id="Objects"><path class="cls-2" d="M627.15,613.1c-3.29,22.27,59.49-27.35,63.79-90.75s-22-91.07-29.47-104.73-31.84-42.8-28.33-60.78,0.73-14.31,8.11-26.6-10,5.61-13.53,10.9-14.87,21.1-15.51,43.49,2.49,33.75,2.49,33.75-19-17.48-20.72-52.86,4.88-66.41,19.76-89a67,67,0,0,1,37.83-27.69s-22.79-4.91-69.33,24.71-68.9,65.3-80.49,83.37-27,60.43-26,92.83,10.21,45.14,10.21,45.14-9.74-2.37-14.82-45.17c-4.51-38.06,5.77-61.49,5.77-61.49s-20.12,24-27.62,54.58c-10.59,43.28-7.67,91.21,18,128.58s58.59,49.77,69.28,51.75,47.78,6.3,61.35-13.65c25.21-37.06,35.1-91,35.1-91S632.34,578,627.15,613.1Z" transform="translate(-420.27 -248.49)"/><path class="cls-3" d="M636.39,618.53c-3.29,22.27,59.49-27.35,63.79-90.75s-22-91.07-29.47-104.73-31.84-42.8-28.33-60.78,0.73-14.31,8.11-26.6-10,5.61-13.53,10.9-14.87,21.1-15.51,43.49,2.49,33.75,2.49,33.75-19-17.48-20.72-52.86,4.88-66.41,19.76-89a67,67,0,0,1,37.83-27.69s-22.79-4.91-69.33,24.71-68.9,65.3-80.49,83.37-27,60.43-26,92.83,10.21,45.14,10.21,45.14-9.74-2.37-14.82-45.17c-4.51-38.06,5.77-61.49,5.77-61.49s-20.12,24-27.62,54.58c-10.59,43.28-7.67,91.21,18,128.58s58.59,49.77,69.28,51.75,47.78,6.3,61.35-13.65c25.21-37.06,35.1-91,35.1-91S641.57,583.48,636.39,618.53Z" transform="translate(-420.27 -248.49)"/><ellipse class="cls-4" cx="151.66" cy="480.47" rx="151.66" ry="8.52"/><path class="cls-5" d="M485.83,671.44c-62.31-47.45-74.4-136.75-27-199.06s136.75-74.41,199.06-27,74.41,136.73,27,199.06S548.14,718.88,485.83,671.44ZM657.26,446.31c-61.82-47.07-150.42-35.08-197.49,26.75S424.69,623.48,486.5,670.55,636.92,705.62,684,643.8,719.07,493.38,657.26,446.31Z" transform="translate(-420.27 -248.49)"/><circle class="cls-6" cx="151.66" cy="309.94" r="141.47"/><path class="cls-7" d="M573.52,686.25a156.24,156.24,0,0,1-132.73-73.7A141.6,141.6,0,0,0,694.12,629.4,156,156,0,0,1,573.52,686.25Z" transform="translate(-420.27 -248.49)"/><path class="cls-8" d="M681.57,529.42c0,51.21-49,26-109.34,26s-109.34,25.19-109.34-26,49-92.72,109.34-92.72S681.57,478.21,681.57,529.42Z" transform="translate(-420.27 -248.49)"/><path class="cls-9" d="M494,592.26c0-39.32,35-20,78.27-20s78.27-19.34,78.27,20-35,71.2-78.27,71.2S494,631.58,494,592.26Z" transform="translate(-420.27 -248.49)"/><g class="cls-10"><path class="cls-11" d="M645.31,529.75l31-24.84a63.64,63.64,0,0,0-52-41.46l-15.89,36.94A63.8,63.8,0,0,1,645.31,529.75Z" transform="translate(-420.27 -248.49)"/><path class="cls-11" d="M650.36,567.22l20.65,7a65,65,0,0,0,8.82-63.82l-0.06.05-31.59,25.3A55.85,55.85,0,0,1,650.36,567.22Z" transform="translate(-420.27 -248.49)"/></g><g class="cls-12"><path class="cls-13" d="M441.27,558.42c0-77.81,58.45-140.88,130.55-140.88a140.88,140.88,0,0,0,0,281.77C499.72,699.3,441.27,636.23,441.27,558.42Z" transform="translate(-420.27 -248.49)"/><path class="cls-14" d="M571.82,417.54c72.1,0,130.55,63.08,130.55,140.88S643.92,699.3,571.82,699.3A140.88,140.88,0,0,0,571.82,417.54Z" transform="translate(-420.27 -248.49)"/></g><path class="cls-15" d="M601.51,645.83c-1.63,11,29.48-13.55,31.6-45s-10.92-45.12-14.6-51.89-15.78-21.2-14-30.11,0.36-7.09,4-13.18-4.93,2.78-6.71,5.4-7.37,10.45-7.68,21.55,1.23,16.72,1.23,16.72-9.43-8.66-10.27-26.19,2.42-32.9,9.79-44.12a33.21,33.21,0,0,1,18.74-13.72s-11.29-2.43-34.35,12.24-34.14,32.35-39.88,41.31-13.35,29.94-12.89,46,5.06,22.37,5.06,22.37-4.83-1.17-7.34-22.38C522,546,527,534.4,527,534.4s-10,11.88-13.68,27c-5.25,21.44-3.8,45.19,8.91,63.71s29,24.66,34.33,25.64S580.27,653.91,587,644c12.49-18.36,17.39-45.07,17.39-45.07S604.08,628.46,601.51,645.83Z" transform="translate(-420.27 -248.49)"/><path class="cls-16" d="M543.7,567.4v4.25h-13.4v14.8h10.49v4.18H530.29v19.22h-4.18V567.4H543.7Z" transform="translate(-420.27 -248.49)"/><path class="cls-16" d="M548.91,567.7h4v5.46h-4V567.7Zm0,11.83h4v30.32h-4V579.53Z" transform="translate(-420.27 -248.49)"/><path class="cls-16" d="M578.26,616.34a9.55,9.55,0,0,1-.76,4,7.27,7.27,0,0,1-2.09,2.73,9,9,0,0,1-3.06,1.58,13,13,0,0,1-3.73.52,13.2,13.2,0,0,1-2.49-.3q-1.52-.3-2.91-0.67-1.7-.42-3.52-1l1.09-3.58q1.76,0.55,3.34,1,1.33,0.36,2.61.67a9.1,9.1,0,0,0,1.88.3,6.84,6.84,0,0,0,4.12-1.27,4.41,4.41,0,0,0,1.76-3.82v-7.28a10.24,10.24,0,0,1-3.34,1.12,23,23,0,0,1-2.43.15h-0.61a7.55,7.55,0,0,1-3.24-.7,9,9,0,0,1-2.64-1.88,8.46,8.46,0,0,1-1.79-2.76,9,9,0,0,1-.64-3.4v-14a9,9,0,0,1,.64-3.4,8.47,8.47,0,0,1,1.79-2.76,9,9,0,0,1,2.64-1.88,7.55,7.55,0,0,1,3.24-.7,13.83,13.83,0,0,1,3.12.42,26,26,0,0,1,3.85,1.27l1.88-1.88,2.73,2.73-1.46,1.4v33.48Zm-3.82-31.72a15.11,15.11,0,0,0-3.82-1.52,13.4,13.4,0,0,0-2.55-.3,4.17,4.17,0,0,0-3.12,1.36,4.53,4.53,0,0,0-1.3,3.24v14.43a4.71,4.71,0,0,0,1.3,3.33,4.19,4.19,0,0,0,3.18,1.4c0.32,0,.65,0,1,0a6.37,6.37,0,0,0,1.18-.21c0.46-.12,1-0.3,1.7-0.55a24.12,24.12,0,0,0,2.46-1.09V584.62Z" transform="translate(-420.27 -248.49)"/><path class="cls-16" d="M600.4,609.85V587.47a4.56,4.56,0,0,0-1.33-3.3,4.27,4.27,0,0,0-3.15-1.36,15.53,15.53,0,0,0-2.85.36,9.6,9.6,0,0,0-3.52,1.52v25.17h-3.82V567.7h3.82v12.68a10.54,10.54,0,0,1,3.85-1.33q1.55-.12,2.52-0.12a7.62,7.62,0,0,1,3.21.7,8.52,8.52,0,0,1,2.64,1.88,8.72,8.72,0,0,1,1.76,2.76,9,9,0,0,1,.64,3.4v22.2H600.4Z" transform="translate(-420.27 -248.49)"/><path class="cls-16" d="M613.8,583.22h-5v-3.76h5V567.7h3.94v11.77h5.4v3.76h-5.4v18.86a3.54,3.54,0,0,0,1.09,3,4.22,4.22,0,0,0,2.61.82h1.7v4h-2a7.51,7.51,0,0,1-5.22-1.91q-2.12-1.91-2.12-6.22V583.22Z" transform="translate(-420.27 -248.49)"/></g></g></svg>