<svg id="Calque_1" data-name="Calque 1" xmlns="http://www.w3.org/2000/svg" viewBox="0 0 365.9 251.65"><defs><style>.cls-1{fill:#231f20;}.cls-2{fill:#27aae1;}.cls-3{fill:#8b5e3c;}.cls-4{fill:#fbb040;}.cls-5{fill:#39b54a;}.cls-6{fill:#fff;}</style></defs><title>Sans titre - 1</title><polygon class="cls-1" points="141.49 127.1 123.27 127.1 123.27 145.32 105.94 145.32 105.94 127.1 87.72 127.1 87.72 109.78 105.94 109.78 105.94 91.56 123.27 91.56 123.27 109.78 141.49 109.78 141.49 127.1"/><circle class="cls-2" cx="239.35" cy="118.44" r="9.76"/><circle class="cls-3" cx="259.4" cy="138.49" r="9.76"/><circle class="cls-4" cx="259.4" cy="98.39" r="9.76"/><circle class="cls-5" cx="279.45" cy="118.44" r="9.76"/><path class="cls-4" d="M383.39,152.83a72.92,72.92,0,0,0-41.66,13c0-22.74-5.36-43.67-16.38-58.26,38,88.61-52.38,226.46-129.06,163a61.47,61.47,0,1,1,96.79-73.08l1.65,3.14H317q2.35-6.46,4.14-13.12c-0.29.47-.61,0.92-0.89,1.4H301.72a73.2,73.2,0,1,0-30.14,102.46h0a107.47,107.47,0,0,0,35.84-28.28h12.84A73.21,73.21,0,1,0,383.39,152.83Zm0,134.71a61.38,61.38,0,0,1-54.48-33l-1.65-3.14H316.2c13.83-20.82,22.12-45.72,24.67-69.81A61.5,61.5,0,1,1,383.39,287.54Z" transform="translate(-124 -107.6)"/><path class="cls-4" d="M126.88,359.25v-2.88H124V339.09h5.76v11.52h2.88V339.09h2.88v11.52h2.88V339.09h5.76v17.29h-2.88v2.88H138.4v-2.88h-2.88v-2.88h-2.88v2.88h-2.88v2.88h-2.88Z" transform="translate(-124 -107.6)"/><path class="cls-4" d="M149.93,359.25v-2.88h5.76V342h-5.76v-2.88h17.29V342h-5.76v14.41h5.76v2.88H149.93Z" transform="translate(-124 -107.6)"/><path class="cls-4" d="M173,359.25V339.09h5.76v17.29h11.52v2.88H173Z" transform="translate(-124 -107.6)"/><path class="cls-4" d="M193.15,359.25V339.09h14.41V342h2.88v2.88h2.88v8.64h-2.88v2.88h-2.88v2.88H193.15Zm5.76-2.88h5.76v-2.88h2.88v-8.64h-2.88V342h-5.76v14.41Z" transform="translate(-124 -107.6)"/><path class="cls-4" d="M239.24,359.25V339.09h20.17V342H245v5.76h11.52v2.88H245v8.64h-5.76Z" transform="translate(-124 -107.6)"/><path class="cls-4" d="M265.17,359.25v-2.88h5.76V342h-5.76v-2.88h17.29V342H276.7v14.41h5.76v2.88H265.17Z" transform="translate(-124 -107.6)"/><path class="cls-4" d="M291.1,359.25v-2.88h-2.88v-2.88h-2.88v-8.64h2.88V342h2.88v-2.88h14.41V342H294v2.88H291.1v8.64H294v2.88h5.76v-5.76h-2.88v-2.88h8.64v11.52H291.1Z" transform="translate(-124 -107.6)"/><path class="cls-4" d="M308.39,359.25V339.09h5.76v8.64h8.64v-8.64h5.76v20.17h-5.76v-8.64h-8.64v8.64h-5.76Z" transform="translate(-124 -107.6)"/><path class="cls-4" d="M340.08,359.25V342h-5.76v-2.88h17.29V342h-5.76v17.29h-5.76Z" transform="translate(-124 -107.6)"/><path class="cls-4" d="M377.54,359.25V344.85h2.88V342h2.88v-2.88h8.64V342h2.88v2.88h2.88v14.41h-5.76v-5.76H383.3v5.76h-5.76Zm5.76-8.64h8.64v-5.76h-2.88V342h-2.88v2.88H383.3v5.76Z" transform="translate(-124 -107.6)"/><path class="cls-4" d="M400.58,359.25V339.09h17.29V342h2.88v8.64H415v2.88h2.88v2.88h2.88v2.88h-8.64v-2.88h-2.88v-2.88h-2.88v5.76h-5.76Zm5.76-8.64h5.76v-2.88H415V342h-8.64v8.64Z" transform="translate(-124 -107.6)"/><path class="cls-4" d="M423.63,359.25V339.09H443.8V342H429.39v5.76h11.52v2.88H429.39v5.76H443.8v2.88H423.63Z" transform="translate(-124 -107.6)"/><path class="cls-4" d="M446.68,359.25V339.09h5.76V342h2.88v2.88h2.88v2.88h2.88v-8.64h5.76v20.17h-5.76v-5.76h-2.88v-2.88h-2.88v-2.88h-2.88v11.52h-5.76Z" transform="translate(-124 -107.6)"/><path class="cls-4" d="M469.73,359.25V344.85h2.88V342h2.88v-2.88h8.64V342H487v2.88h2.88v14.41h-5.76v-5.76h-8.64v5.76h-5.76Zm5.76-8.64h8.64v-5.76h-2.88V342h-2.88v2.88h-2.88v5.76Z" transform="translate(-124 -107.6)"/><path class="cls-6" d="M378.25,210.62V208h1.29v-1.29h1.29v-1.29h1.29v-1.29h1.29v-1.29h-5.15V201.6h9v2.57H386v1.29h-1.29v1.29H383.4V208h-1.29v1.29h5.15v1.29h-9Z" transform="translate(-124 -107.6)"/><path class="cls-6" d="M399.78,229.87v-1.29H398.5v-3.86h1.29v-1.29h7.72v1.29h-6.44v3.86h6.44v1.29h-7.72Z" transform="translate(-124 -107.6)"/><path class="cls-6" d="M379.25,250.62V248h1.29v-1.29h1.29v-1.29h-1.29v-1.29h-1.29V241.6h2.57v2.58h1.29v1.29h1.29v-1.29h1.29V241.6h2.58v2.58H387v1.29h-1.29v1.29H387V248h1.29v2.57h-2.58V248H384.4v-1.29h-1.29V248h-1.29v2.57h-2.57Z" transform="translate(-124 -107.6)"/><path class="cls-6" d="M359,229.87v-9h2.57v1.29h1.29v1.29h1.29v-1.29h1.29v-1.29H368v9h-2.58v-5.15h-1.29v2.57h-1.29v-2.57h-1.29v5.15H359Z" transform="translate(-124 -107.6)"/></svg>